<svg width="11" height="11" viewBox="0 0 11 11" fill="none" xmlns="http://www.w3.org/2000/svg">
<g clip-path="url(#clip0_1_69)">
<path d="M5.30621 2.03204C5.06217 1.89086 4.7788 1.81006 4.47657 1.81006C3.56019 1.81006 2.81731 2.55294 2.81731 3.46932V4.2053C2.46428 4.34726 2.17494 4.5677 1.96331 4.85868C1.69415 5.22877 1.57286 5.68224 1.57286 6.16563C1.57286 6.81332 1.90276 7.38336 2.40249 7.71787V8.23971C2.40249 9.27065 3.23823 10.1064 4.26917 10.1064C4.6529 10.1064 5.00961 9.99061 5.30621 9.79204V8.23971C5.30621 7.68676 5.16932 7.33321 4.94955 7.09515C4.7244 6.85124 4.35886 6.67025 3.78615 6.5748L3.92255 5.75645C4.46248 5.84643 4.93528 6.01518 5.30621 6.30132V2.03204ZM6.13584 2.03204V6.30132C6.50677 6.01518 6.97958 5.84643 7.5195 5.75645L7.65589 6.5748C7.0832 6.67025 6.71766 6.85124 6.4925 7.09515C6.27273 7.33321 6.13584 7.68676 6.13584 8.23971V9.79204C6.43243 9.99061 6.78913 10.1064 7.17288 10.1064C8.20382 10.1064 9.03955 9.27065 9.03955 8.23971V7.71787C9.53928 7.38336 9.86919 6.81332 9.86919 6.16563C9.86919 5.68224 9.7479 5.22877 9.47872 4.85868C9.26712 4.5677 8.97779 4.34726 8.62474 4.2053V3.46932C8.62474 2.55294 7.88184 1.81006 6.96547 1.81006C6.66324 1.81006 6.37988 1.89086 6.13584 2.03204Z" fill="#164F89"/>
</g>
<defs>
<clipPath id="clip0_1_69">
<rect width="9.95559" height="9.95559" fill="white" transform="translate(0.743225 0.980469)"/>
</clipPath>
</defs>
</svg>
